<svg id="Capa_1" enable-background="new 0 0 505.002 505.002" height="512" viewBox="0 0 505.002 505.002" width="512" xmlns="http://www.w3.org/2000/svg"><g><g><circle cx="427.523" cy="324.366" fill="#596c76" r="69.965"/><circle cx="427.523" cy="324.366" fill="#7a8c98" r="34.248"/><circle cx="125.635" cy="324.366" fill="#596c76" r="69.965"/><path d="m433.506 219.37c-12.36.57-23.38 2.8-33.2 6.29-71.64 25.34-79.71 117.06-79.71 117.06h-299.82c.94-110.06 34.89-125.27 34.89-125.27l52.4-35.08h139.67c30.56 15.18 9.29 52.19-5.89 64.52s-20.88 61.67-20.88 61.67h68.18c7.46-38.9 29.55-65.47 50.42-92.98 20.88-27.52 21.83-66.42 21.83-66.42l31.58-3.3 32.05-3.34z" fill="#fd4755"/><path d="m433.506 219.37c-12.36.57-23.38 2.8-33.2 6.29l-7.33-79.8 32.05-3.34z" fill="#e41f2d"/><path d="m193.166 342.72h-185.67c2.19-65.32 28.47-98.29 87.73-102.76 9.31-.72 19.44-.72 30.41-.03 80.82 5.06 67.53 102.79 67.53 102.79z" fill="#e41f2d"/><path d="m162.426 342.72h-154.93c2.19-65.32 28.47-98.29 87.73-102.76 80.45 5.3 67.2 102.76 67.2 102.76z" fill="#fd4755"/><path d="m383.767 146.828 41.263-4.307-4.499-30.994c.001 0-33.68-9.728-36.764 35.301z" fill="#5f99d7"/><path d="m247.736 182.37h-139.67s3.8-39.26 26.57-45.58c19.81-5.5 58.28 3.38 80.86 5.37 3.38.3 6.4.44 8.95.36 19.61-.63 42.78 12.65 23.29 39.85z" fill="#baafb9"/><path d="m247.736 182.37h-32.24v-40.21c3.38.3 6.4.44 8.95.36 19.61-.63 42.78 12.65 23.29 39.85z" fill="#aa9ea9"/></g><g><path d="m133.96 273.162h-62.958c-4.142 0-7.5 3.358-7.5 7.5s3.358 7.5 7.5 7.5h62.959c9.259-.245 10.01-14.226-.001-15z"/><path d="m133.96 300.153h-62.958c-4.142 0-7.5 3.358-7.5 7.5s3.358 7.5 7.5 7.5h62.959c9.259-.245 10.01-14.226-.001-15z"/><path d="m488.527 386.839h-15.156c5.959-4.385 11.322-9.651 15.913-15.715 12.49-16.497 17.807-36.87 14.974-57.367-2.396-17.334-10.299-32.913-22.853-45.05-6.199-5.954-17.235 2.783-10.427 10.783 10.118 9.783 16.488 22.343 18.421 36.321 2.285 16.528-2.003 32.957-12.075 46.259-10.071 13.303-24.686 22.149-41.248 24.172-13.345 1.63-35.454-3.894-46.259-12.075-13.303-10.071-21.887-24.72-24.172-41.248-2.285-16.527 2.003-32.956 12.074-46.258 6.135-8.104 13.976-14.444 22.899-18.689l19.795 58.786c1.055 3.132 3.976 5.108 7.107 5.108.793 0 1.601-.127 2.395-.394 3.925-1.322 6.036-5.576 4.714-9.501l-19.785-58.757c1.362-.28 17.534-3.06 28.877.805 8.431 2.476 13.654-10.812 3.896-14.485-15.24-4.479-35.327-1.145-37.591-.625l-5.638-16.742c9.119-3.036 18.94-4.817 29.46-5.304 3.203-.224 7.388-3.007 7.108-8.314l-3.804-34.512 14.516-1.88c9.153-1.433 8.098-15.393-1.927-14.876l-14.233 1.843-7.556-58.675c-.423-2.914-2.512-5.311-5.341-6.128-.65-.188-16.062-4.489-29.306 4.779-3.841 2.688-7.046 6.174-9.614 10.427l-12.348-9.514c-1.312-1.011-2.921-1.559-4.578-1.559h-42.182c-9.26.245-10.011 14.226 0 15h39.628l13.813 10.643c-.432 1.887-.794 3.856-1.085 5.905l-16.327 1.705c-3.75.392-6.626 3.507-6.718 7.277-.009.365-1.111 36.77-20.302 62.061-1.546 2.037-3.098 4.069-4.65 6.101-18.558 24.29-37.712 49.36-45.859 83.919h-53.458c.749-4.585 1.861-10.62 3.38-16.964 5.462-22.817 11.307-29.551 13.566-31.387 11.291-9.175 26.205-30.988 24.011-50.752-.727-6.549-3.602-15.133-12.529-21.99 6.762-12.732 4.846-22.157 1.663-28.115-4.356-8.153-16.271-17.472-35.509-16.832-24.042-.379-69.36-12.09-91.582-5.464-23.081 6.407-29.875 37.652-31.552 48.459l-26.346 17.643-7.981-10.868h9.199c4.142 0 7.5-3.358 7.5-7.5s-3.358-7.5-7.5-7.5h-58.559c-9.26.245-10.011 14.226 0 15h30.751l14.116 19.222-10.398 6.963c-4.158 2.232-21.075 13.772-31.044 57.089-12.895 17.735-19.734 42.253-20.811 74.4-.031 3.153 2.3 7.462 7.496 7.751h13.18c.033 0 .064.005.097.005h31.846c5.303 15.036 14.993 27.629 27.29 36.614h-59.131c-4.142 0-7.5 3.358-7.5 7.5s3.358 7.5 7.5 7.5h272.347c4.142 0 7.5-3.358 7.5-7.5s-3.358-7.5-7.5-7.5h-121.667c12.347-9.052 21.938-21.705 27.209-36.614h121.931c3.888 0 7.131-2.971 7.471-6.843.025-.282 2.648-28.53 17.234-57.146 11.376-22.318 26.512-38.427 45.232-48.211l5.269 15.647c-11.749 5.251-22.059 13.391-30.042 23.936-12.49 16.497-17.494 36.83-14.974 57.367 3.996 32.556 30.631 51.626 30.957 51.865h-53.858c-4.142 0-7.5 3.358-7.5 7.5s3.358 7.5 7.5 7.5h160.64c4.142 0 7.5-3.358 7.5-7.5s-3.358-7.501-7.5-7.501zm-86.727-265.372c3.751-2.67 8.036-3.319 11.319-3.319.273 0 .539.004.797.013l2.571 17.712-24.055 2.51c1.663-7.992 4.799-13.665 9.368-16.916zm-360.273 145.816c17.399-15.804 44.758-22.3 83.64-19.868 18.954 1.187 33.733 8.082 43.929 20.495 17.462 21.26 17.891 53.605 17.17 67.311h-170.886c2.136-31.654 10.72-53.926 26.147-67.938zm92.663 118.96c-27.693 3.832-54.193-11.294-65.414-36.018h113.724c-8.762 19.302-26.838 33.051-48.31 36.018zm197.75-106.82c-11.59 22.737-16.221 44.946-17.922 55.802h-112.702c.812-16.17-.102-51.79-20.581-76.776-12.946-15.796-31.327-24.545-54.632-26.004-35.801-2.243-63.206 2.73-83.246 15.155 7.394-17.706 16.532-23.613 16.981-23.913l50.497-33.815h22.3c9.26-.245 10.011-14.226 0-15h-15.733c2.523-11.356 8.492-27.736 19.737-30.857 20.297-5.611 65.014 6.225 88.054 6.003 9.698-.313 18.869 3.434 21.794 8.908 2.558 4.789.293 10.882-2.776 15.946h-75.674c-9.26.245-10.011 14.226 0 15h77.835c5.934 3.352 9.149 7.86 9.803 13.746.956 8.603-4.964 26.405-18.562 37.456-17.056 13.86-22.978 61.271-23.597 66.631-.306 3.297 1.955 8.032 7.451 8.36h68.185c3.598 0 6.689-2.555 7.366-6.089 6.565-34.273 24.917-58.293 44.346-83.724 1.563-2.045 27.263-38.224 27.575-70.28l49.957-5.218 6.804 61.728c-41.342 4.386-74.61 30.353-93.26 66.941z"/></g></g></svg>