<?xml version="1.0" encoding="utf-8"?>
<svg viewBox="39.137 170.712 602.857 438.827" xmlns="http://www.w3.org/2000/svg">
  <defs>
    <clipPath id="a" clipPathUnits="userSpaceOnUse">
      <path d="M3765.03 2322.69c-4.58 36.44-7.72 70.71-8.35 100.96.55-26.06 3.65-60.84 8.35-100.96m-8.35 101.18v0"/>
    </clipPath>
  </defs>
  <path d="M529.565 562.034c-12.68-12.082-31.608-23.163-30.346-43.237.062-.929-1.14-1.098-1.543-.473a.362.362 0 00-.387.115l-.034.037a28.384 28.384 0 00-2.872 7.532l-.014.043c-2.778 11.966 1.727 25.196 8.707 35.013 5.3 7.427 12.087 13.599 19.25 19.196 4.027 3.135 8.229 6.053 12.255 9.187 3.806 2.949 7.028 6.457 10.562 9.64.145.137.298.29.457.42.035.878.063 1.742.063 2.621-.006.667.98.699 1.013.053.01-.148.015-.31.01-.453l.007-.021c.012-.419.031-.824.028-1.234.159.13.303.268.455.386.448.372 1.161-.042.87-.625-.4-.754-.85-1.502-1.334-2.213-.03-.63-.015-1.177-.072-1.792l-.03-.09c-.92-13.16-7.365-24.876-17.045-34.105M567.183 556.74l-.02.028-.007.023-.007.021-.006.021-.007.022a390.904 390.904 0 00-2.45 4.169c.502-1.216.933-2.43 1.286-3.659l.336-.179c.333-.283.667-.569 1.008-.84l.27-.232c-.142.238-.23.445-.403.626zm73.421-77.433c-14.919 11.826-29.899 23.704-43.105 37.474-10.118 10.571-19.295 22.507-27.212 34.994-.662.511-1.3 1.032-1.947 1.57-.2.162-.416.33-.61.504-.383.294-.737.607-1.111.914.146-.67.257-1.339.369-2.008.287.1.625.064.87-.086.271-.161.434-.462.282-.885-.053-.17-.128-.344-.183-.513l-.005-.014a33.395 33.395 0 00-.643-1.614c.102-1.668.09-3.347-.028-5.024a21.424 21.424 0 00-.225-2.319l-.025-.148c-1.334-10.968-6.763-21.645-12.23-31.279-11.08-19.442-21.037-39.912-22.497-62.612-.04-.785-.761-1.3-1.41-1.17l-.014.008a.757.757 0 00-.392.17c-.119.082-.221.191-.325.335-9.372 14.443-11.896 32.875-5.79 49.09 3.639 9.637 9.919 18.033 16.976 25.425 8.496 8.924 19.084 16.45 24.179 27.949.3.701.58 1.397.852 2.113l.095.146a41.281 41.281 0 01-.412 2.909l-.895.745c-.59.51-.148 1.279.45 1.392a37.697 37.697 0 01-1.2 4.025l.107.035.04-.094.264.022c.439-.592.872-1.161 1.326-1.725l.02-.03.02-.063a314.24 314.24 0 003.396-4.618c.296-.39.589-.78.878-1.184 1.82-1.47 3.671-2.881 5.542-4.286l.014-.008c11.351-8.516 23.387-16.107 33.715-25.874 6.035-5.694 11.032-12.024 15.159-19.217 3.937-6.877 8.116-13.059 12.957-19.108l.007-.021a141.12 141.12 0 013.889-4.7c.29-.334.296-.696.14-.988l-.008-.015c-.215-.407-.78-.627-1.28-.217" style="fill-opacity: 0.15;"/>
  <path d="M587.648 390.625c-.228.283-.455.564-.668.839-6.692 8.34-12.673 16.195-16.364 26.475-3.645 10.166-5.133 21.052-4.201 31.802 1.041 11.804 5.288 23.091 7.86 34.602 1.621 7.282 2.565 14.438 2.641 21.716l.007.014a90.613 90.613 0 01-.367 9.143c1.752-5.179 3.525-10.39 5.256-15.576l.013-.043c4.8-14.545 9.136-29.22 11.336-44.448 3.015-20.95 1.034-41.188-4.333-61.42l-.008-.014a92.736 92.736 0 00-.972-3.59.826.826 0 01-.2.5" style="fill-opacity: 0.15;"/>
  <path d="M638.22 439.683c-25.313 20.285-45.607 46.012-59.215 75.454l-.118.08-.015.007c-1.368.835-2.73 1.683-4.112 2.524a1.212 1.212 0 00-.325.297 1.15 1.15 0 00-.212.92l.006.015c.152.69.838 1.24 1.6.784.79-.473 1.57-.96 2.352-1.445 12.915-7.967 25.502-16.55 34.2-29.288 9.915-14.499 17.93-30.624 26.148-46.159l.028-.05c.344-.667.704-1.342 1.05-2.01l.053-.136c.335-.859-.67-1.6-1.44-.993M541.564 538.719c-10.408-16.894-28.304-28.396-31.679-49.13-.1-.664-.857-.602-1.145-.164a.762.762 0 00-.148.294c-.483 2.876-.812 5.704-.936 8.478a58.021 58.021 0 00.023 7.752c.717 10.919 4.425 21.056 11.957 30.294 10.964 13.406 25.881 23.352 34.536 38.522.281 1.447.43 2.91.323 4.294l-.007.022-.007.02c-.077 1.243-.333 2.383-.88 3.482-.304.644.611 1.252.963.6.91-1.632 1.273-3.383 1.307-5.178l.126.239.111.173a.69.69 0 00.381.246c.614.177 1.412-.48 1.047-1.236a55.931 55.931 0 00-1.285-2.493c-.29-.546-.607-1.075-.903-1.6-.707-3.16-1.957-6.297-2.819-9.103-2.736-8.845-6.09-17.607-10.965-25.512M634.205 520.759l-.224.082c-16.822 11.008-33.049 22.903-48.474 35.805-9.847 8.203-19.954 16.526-28.479 26.178l-.199.232-.021.03-.007.02a84.55 84.55 0 00-3.733 4.457c-.139.074-.28.149-.425.244a283.206 283.206 0 01-2.19 4.695 27.727 27.727 0 012.792-2.038l.32-.205c.831-.53 1.691-1.042 2.571-1.508l.825-.439.191-.083c6.004-3.078 12.847-5.149 18.53-7.986 8.157-4.06 16.031-8.92 22.673-15.226 11.774-11.126 19.646-25.562 30.574-37.406l.07-.072c1.809-1.964 3.704-3.867 5.73-5.66.456-.422.012-1.226-.524-1.12" style="fill-opacity: 0.15;"/>
  <path d="M 547.219 603.204 L 547.211 603.189 C 547.652 602.364 548.077 601.51 548.517 600.649 C 549.747 598.211 550.951 595.76 552.129 593.297 C 552.387 592.767 552.629 592.244 552.879 591.7 C 553.116 591.232 553.337 590.739 553.565 590.259 C 553.619 590.121 553.695 589.992 553.755 589.835 L 553.768 589.827 C 553.964 589.42 554.16 589.01 554.348 588.588 C 555.163 586.81 555.976 584.998 556.809 583.121 L 556.801 583.107 L 556.808 583.085 L 556.829 583.055 C 556.883 582.921 556.951 582.777 557.016 582.635 C 560.33 575.078 563.379 567.407 566.155 559.636 L 566.175 559.606 L 566.195 559.543 C 566.513 558.656 566.833 557.769 567.136 556.855 L 567.143 556.833 L 567.149 556.812 L 567.156 556.791 L 567.163 556.768 L 567.183 556.74 C 567.223 556.61 567.276 556.476 567.316 556.347 C 567.668 555.353 568.006 554.367 568.34 553.345 C 571.979 542.592 575.38 530.852 578.181 518.319 C 578.324 517.74 578.452 517.169 578.572 516.587 L 578.585 516.579 C 578.621 516.344 578.68 516.115 578.731 515.873 C 578.776 515.653 578.82 515.432 578.872 515.224 L 578.887 515.217 C 579.989 510.049 580.964 504.855 581.812 499.64 L 581.825 499.597 C 584.285 484.585 585.78 468.636 585.836 452.032 C 585.837 450.999 584.999 450.161 583.966 450.162 C 582.941 450.165 582.112 450.997 582.113 452.022 C 582.103 456.988 581.953 461.896 581.679 466.731 L 581.688 466.78 C 580.933 480.47 579.244 493.613 576.916 506.059 L 576.923 506.073 C 576.172 510.079 575.342 514.071 574.435 518.045 C 574.377 518.345 574.293 518.659 574.223 518.965 L 574.229 518.98 C 572.287 527.431 570.024 535.805 567.445 544.084 L 567.281 544.619 C 566.957 545.633 566.643 546.625 566.327 547.619 C 566.048 548.447 565.785 549.268 565.528 550.068 C 562.746 558.469 559.651 566.764 556.251 574.934 C 556.144 575.207 556.023 575.486 555.908 575.744 C 555.823 575.951 555.735 576.159 555.648 576.367 C 555.258 577.291 554.878 578.192 554.495 579.059 L 554.488 579.081 L 554.481 579.101 C 552.664 583.337 550.76 587.535 548.769 591.692 C 548.064 593.182 547.344 594.664 546.609 596.139 C 546.204 596.963 545.799 597.788 545.393 598.577 C 545.304 598.749 545.231 598.915 545.143 599.087" style="fill-opacity: 0.3;"/>
  <path d="M616.73 468.49a233.36 233.36 0 01-40.555 46.865c-1.687 1.493.628 4.113 2.313 2.622a236.974 236.974 0 0041.15-47.548c1.234-1.884-1.677-3.824-2.909-1.94M608.757 513.099c-14.865 14.237-29.732 28.474-44.597 42.713-1.624 1.556.684 4.18 2.312 2.622l44.597-42.714c1.624-1.556-.684-4.18-2.312-2.621M605.27 546.957a540.085 540.085 0 00-54.663 42.26c-1.692 1.49.622 4.11 2.312 2.622a540.21 540.21 0 0154.662-42.259c1.864-1.258-.472-3.865-2.312-2.623" style="fill-opacity: 0.3;"/>
  <path d="M568.353 553.01c-1.105-12.654-7.873-23.442-14.99-33.606-8.572-12.241-16.264-23.973-18.71-39.01-.361-2.222-3.78-1.491-3.42.727 2.178 13.391 8.312 24.64 16.008 35.632 7.923 11.315 16.45 22.766 17.694 36.986.194 2.234 3.613 1.49 3.418-.729M557.952 578.368c-4.05-11.399-10.536-21.563-17.517-31.365-7.788-10.936-15.804-21.714-23.718-32.559-1.328-1.82-3.938.51-2.622 2.313 7.616 10.436 15.301 20.824 22.832 31.32 7.141 9.954 13.78 20.258 17.902 31.862.752 2.117 3.867.524 3.123-1.571M547.757 599.507c-5.196-12.085-13.561-21.376-23.009-30.336-9.45-8.96-19.145-18.044-23.63-30.61-.755-2.116-3.87-.522-3.122 1.572 4.204 11.78 12.93 20.73 21.828 29.174 10.013 9.502 19.275 18.896 24.812 31.772.89 2.07 4.008.489 3.121-1.572" style="fill-opacity: 0.3;"/>
  <path d="M122.967 579.056c-19.682-2.09-44.27 1.017-56.966-17.832-.584-.876-1.778-.2-1.707.639a.405.405 0 00-.267.369l-.006.056a32.08 32.08 0 002.614 8.726l.018.047c5.752 12.635 18.9 21.383 31.915 25.37 9.863 3.003 20.194 3.86 30.465 3.94 5.767.033 11.54-.246 17.308-.212 5.439.021 10.742.945 16.099 1.362.225.024.467.055.7.063a75.279 75.279 0 011.861 2.304c.454.601 1.359-.05.946-.65a5.838 5.838 0 00-.304-.416l-.008-.022c-.279-.383-.542-.757-.826-1.124.232.008.458.032.674.033.657.023 1.01-.837.35-1.16-.88-.4-1.797-.76-2.721-1.063-.461-.545-.824-1.045-1.299-1.555l-.089-.06c-9.887-11.159-23.73-17.215-38.757-18.815M153.02 548.405l.001.04.01.024.008.023.009.024.01.025c.217 1.81.434 3.62.675 5.422a39.339 39.339 0 00-1.368-4.165.86.86 0 00.179-.39c.103-.484.205-.97.324-1.445.019-.13.045-.275.081-.396.035.312.1.557.071.838zm12.443-119.934c-5.219 20.868-10.459 41.828-12.806 63.258-1.784 16.436-1.784 33.451-.276 50.09-.24.914-.456 1.82-.661 2.748-.07.282-.148.582-.201.872-.142.526-.243 1.05-.367 1.583-.33-.7-.69-1.375-1.052-2.053.324-.108.603-.373.72-.674.132-.334.07-.715-.356-.988-.164-.115-.352-.22-.516-.335l-.016-.007a35.676 35.676 0 00-1.687-1.005 43.081 43.081 0 00-3.486-4.48 23.805 23.805 0 00-1.799-1.924l-.124-.115c-8.748-8.906-20.965-14.732-32.499-19.598-23.316-9.787-46.333-21.266-63.277-40.596-.576-.676-1.576-.64-2.068-.079l-.008.017a.874.874 0 00-.232.424 1.478 1.478 0 00-.062.524c1.552 19.394 11.983 37.643 28.624 47.966 9.897 6.125 21.305 9.32 32.718 11.082 13.757 2.143 28.425 1.594 40.91 8.387.753.421 1.48.853 2.218 1.308l.187.064a47.404 47.404 0 011.633 2.89l-.29 1.284c-.177.863.751 1.246 1.365.935a42.448 42.448 0 011.698 4.435l.118-.045-.028-.112a.176.176 0 00.25-.16 62.997 62.997 0 01-.001-2.46l-.001-.04-.027-.07a337.755 337.755 0 00-.139-6.476 49.837 49.837 0 00-.028-1.665c.62-2.57 1.306-5.11 2.014-7.659l.008-.016c4.301-15.446 9.858-30.536 12.382-46.4 1.484-9.256 1.602-18.368.346-27.654-1.211-8.872-1.724-17.29-1.554-26.042l-.008-.025c.03-2.268.115-4.57.247-6.89.03-.497-.213-.825-.556-.98l-.017-.007c-.472-.216-1.13-.023-1.296.688" style="fill-opacity: 0.15;"/>
  <path d="M56.945 385.497c-.009.41-.018.819-.02 1.211-.251 12.08-.2 23.237 3.574 34.99 3.736 11.617 9.902 22.394 18.14 31.382 9.063 9.856 20.64 17.044 30.872 25.584 6.467 5.408 12.243 11.168 17.322 17.636l.016.007a102.751 102.751 0 015.969 8.445c-1.998-5.848-3.998-11.736-6.02-17.575l-.017-.048c-5.717-16.336-11.94-32.47-20.458-47.625-11.727-20.848-27.44-37.61-46.183-52.039l-.017-.006a106.32 106.32 0 00-3.343-2.548c.102.165.18.338.165.586" style="fill-opacity: 0.15;"/>
  <path d="M136.036 394.615c-8.705 35.605-9.166 72.63-1.08 108.378l-.05.155-.007.015c-.652 1.69-1.287 3.386-1.946 5.093-.058.17-.093.332-.086.492-.002.392.178.73.443.968l.015.008c.612.515 1.606.536 1.972-.399.382-.966.747-1.941 1.112-2.914 6.083-16.032 11.45-32.388 10.467-49.792-1.103-19.818-5.03-39.783-8.365-59.36l-.01-.064c-.15-.836-.294-1.688-.444-2.524l-.046-.159c-.292-.999-1.7-.972-1.975.103M117.658 549.904c-20.96-7.964-44.914-5.944-62.218-22.193-.547-.526-1.183.05-1.138.641.005.12.008.24.07.365 1.547 2.91 3.2 5.67 5 8.24a65.608 65.608 0 005.36 6.93c8.161 9.288 18.465 15.816 31.576 18.902 19.055 4.46 39.268 3.095 57.47 10.726 1.249 1.1 2.39 2.309 3.246 3.625l.01.023.007.023c.788 1.166 1.344 2.363 1.61 3.723.172.788 1.41.703 1.276-.125-.308-2.087-1.191-3.905-2.395-5.537l.277.126.219.08a.795.795 0 00.51-.043c.673-.264.935-1.403.087-1.829a63.248 63.248 0 00-2.868-1.347c-.636-.29-1.285-.546-1.912-.813-2.808-2.342-6.089-4.29-8.794-6.212-8.54-6.04-17.583-11.578-27.393-15.305M188.28 470.01l-.144.23c-7.49 21.448-13.833 43.279-18.765 65.46-3.172 14.132-6.495 28.55-7.483 43.068l-.019.344v.041l.01.023a93.66 93.66 0 00-.275 6.563c-.073.162-.148.325-.213.512.454 1.938.868 3.838 1.272 5.713a30.99 30.99 0 011.097-3.748c.044-.137.087-.276.145-.406.38-1.046.798-2.095 1.266-3.12l.437-.962.113-.204c3.259-6.893 7.962-13.463 11.1-19.919 4.51-9.253 8.216-19.03 9.824-29.253 2.886-18.079-.005-36.43 1.628-54.57l.012-.111c.268-3.006.655-6.015 1.235-9.015.12-.693-.832-1.11-1.24-.645" style="fill-opacity: 0.15;"/>
  <path d="M 104.014 457.787 L 104.056 457.824 C 112.807 470.608 120.348 483.547 126.833 496.3 L 126.849 496.307 C 128.963 500.477 130.971 504.617 132.866 508.748 C 133.021 509.055 133.163 509.393 133.309 509.716 L 133.325 509.724 C 137.405 518.632 141.145 527.693 144.537 536.885 L 144.759 537.48 L 145.969 540.822 C 146.292 541.759 146.621 542.675 146.943 543.568 C 150.236 553.01 153.176 562.572 155.757 572.234 C 155.848 572.551 155.932 572.884 156.008 573.194 L 156.203 573.934 C 156.491 575.028 156.771 576.1 157.024 577.14 L 157.034 577.163 L 157.041 577.186 C 157.881 580.481 158.653 583.666 159.349 586.716 C 159.787 588.648 160.208 590.531 160.596 592.398 C 160.992 594.252 161.379 596.08 161.724 597.871 C 161.928 598.886 162.134 599.905 162.314 600.892 C 162.354 601.107 162.4 601.307 162.44 601.522 C 163.291 606.005 167.815 607.515 167.136 603.78 L 167.119 603.772 C 166.945 602.729 166.739 601.671 166.539 600.597 C 165.962 597.566 165.353 594.541 164.713 591.522 C 164.577 590.872 164.433 590.223 164.283 589.576 C 164.173 588.993 164.032 588.398 163.905 587.81 C 163.86 587.653 163.839 587.485 163.784 587.303 L 163.791 587.285 C 163.684 586.785 163.579 586.284 163.456 585.776 C 162.949 583.576 162.429 581.378 161.896 579.184 L 161.879 579.176 L 161.871 579.153 L 161.869 579.112 C 161.823 578.953 161.785 578.779 161.747 578.604 C 159.511 569.552 156.957 560.581 154.092 551.708 L 154.091 551.667 L 154.064 551.597 C 153.741 550.574 153.406 549.555 153.057 548.541 L 153.048 548.516 L 153.038 548.492 L 153.031 548.469 L 153.021 548.445 L 153.02 548.405 C 152.967 548.264 152.921 548.105 152.868 547.963 C 152.498 546.829 152.121 545.713 151.72 544.567 C 147.572 532.428 142.533 519.568 136.41 506.411 C 136.141 505.798 135.86 505.191 135.567 504.589 L 135.575 504.573 C 135.445 504.337 135.341 504.093 135.22 503.841 C 135.107 503.612 134.995 503.384 134.899 503.163 L 134.905 503.148 C 132.334 497.759 129.632 492.434 126.799 487.178 L 126.781 487.129 C 118.645 471.988 108.999 456.669 97.614 441.756 C 96.904 440.829 95.576 440.656 94.651 441.369 C 93.734 442.078 93.564 443.395 94.272 444.313 C 97.641 448.715 100.89 453.208 104.014 457.787" style="fill-opacity: 0.3;"/>
  <path d="M136.623 435.223a263.638 263.638 0 01-4.05 69.914c-.483 2.5 3.394 3.254 3.878.756a267.758 267.758 0 004.114-70.936c-.19-2.537-4.133-2.27-3.942.266M160.207 480.675l-10.535 68.98c-.384 2.512 3.493 3.274 3.877.759l10.535-68.982c.384-2.512-3.493-3.275-3.877-.757M180.401 513.41a610.091 610.091 0 00-19.864 75.507c-.489 2.5 3.388 3.252 3.878.756a609.921 609.921 0 0119.865-75.506c.801-2.41-3.085-3.136-3.879-.756" fill="#27425a"/>
  <path d="M151.5 544.259c-9.707-10.575-23.199-15.579-36.575-19.782-16.11-5.062-31.082-10.274-43.629-22.062-1.853-1.742-4.414 1.268-2.562 3.008 11.172 10.496 24.417 16.348 38.88 20.896 14.89 4.678 30.417 9.062 41.323 20.948 1.715 1.866 4.266-1.155 2.563-3.008M159.645 574.139c-11.478-7.423-24.289-12.06-37.294-16.035-14.508-4.433-29.113-8.567-43.671-12.832-2.444-.715-3.178 3.17-.757 3.879 14.01 4.104 28.05 8.117 42.026 12.332 13.253 3.997 26.296 8.658 37.98 16.213 2.134 1.379 3.827-2.193 1.716-3.557M165.072 600.097c-12.979-7.248-26.87-9.809-41.506-11.33-14.637-1.518-29.58-2.978-42.25-11.146-2.135-1.374-3.828 2.198-1.715 3.56 11.88 7.655 25.861 9.663 39.647 11.1 15.515 1.616 30.281 3.652 44.11 11.374 2.223 1.24 3.927-2.323 1.714-3.558" style="fill-opacity: 0.3;"/>
  <path d="M 279.41 590.475 C 283.453 594.589 287.721 598.486 291.764 602.6 C 295.584 606.472 299.708 582.931 290.249 571.145 C 277.853 555.714 258.313 540.469 262.729 518.175 C 262.939 517.144 261.619 516.773 261.073 517.415 C 260.922 517.346 260.745 517.374 260.623 517.487 L 260.579 517.523 C 258.757 519.97 257.294 522.666 256.235 525.528 L 256.213 525.575 C 251.309 538.561 254.375 554.052 260.724 566.095 C 265.549 575.207 272.227 583.135 279.411 590.475 M 426.997 495.105 C 408.517 506.12 389.961 517.181 373.109 530.628 C 360.195 540.952 348.129 552.948 337.395 565.749 C 336.576 566.222 335.095 565.933 334.988 565.438 C 334.953 565.241 334.896 565.033 334.861 564.836 L 334.855 564.82 C 334.713 564.181 334.554 563.546 334.377 562.916 C 334.741 561.063 334.98 559.18 335.097 557.284 C 335.176 556.414 335.209 555.524 335.192 554.654 L 335.187 554.483 C 335.335 541.998 330.852 529.228 326.171 517.619 C 316.671 494.184 308.581 469.768 310.344 444.124 C 310.416 443.239 309.685 442.554 308.94 442.601 L 308.924 442.608 C 308.759 442.608 308.597 442.655 308.457 442.743 C 308.313 442.816 308.181 442.923 308.044 443.068 C 295.385 457.841 289.799 478.107 294.212 497.185 C 296.845 508.523 302.624 518.867 309.422 528.201 C 317.602 539.468 328.335 549.483 332.319 563.125 C 332.549 563.955 332.757 564.776 332.956 565.619 L 333.04 565.797 C 332.78 566.873 335.531 568.235 336.907 567.912 C 339.167 566.548 341.847 565.291 344.153 564.007 L 344.171 564 C 358.156 556.16 372.775 549.461 385.804 540.067 C 393.414 534.592 399.959 528.251 405.659 520.812 C 411.096 513.697 416.703 507.4 423.031 501.349 L 423.041 501.325 C 424.672 499.748 426.363 498.185 428.101 496.644 C 428.476 496.314 428.536 495.911 428.405 495.557 L 428.399 495.541 C 428.219 495.053 427.619 494.723 426.997 495.105" style="fill-opacity: 0.15;"/>
  <path d="M380.956 387.853c-.295.283-.592.564-.872.84-8.744 8.339-16.619 16.242-22.292 27.204-5.603 10.84-8.899 22.812-9.464 34.991-.6 13.377 2.465 26.655 3.624 39.932.725 8.399.713 16.556-.29 24.717l.005.016c-.42 3.402-1.006 6.77-1.78 10.188 2.737-5.54 5.504-11.109 8.218-16.66l.02-.046c7.554-15.574 14.608-31.362 19.35-48.087 6.514-23.015 7.324-45.977 4.34-69.441l-.007-.018a103.616 103.616 0 00-.552-4.166.926.926 0 01-.3.53" style="fill-opacity: 0.15;"/>
  <path d="M 430.257 450.37 C 398.871 469.3 372.289 495.077 352.641 526.017 C 352.641 526.017 352.112 527.343 351.242 529.457 C 366.899 522.468 382.282 514.74 393.931 501.772 C 407.207 487.017 418.597 470.156 430.128 453.987 L 430.167 453.935 C 430.652 453.239 431.156 452.537 431.643 451.84 L 431.723 451.697 C 432.225 450.784 431.212 449.805 430.257 450.369 M 307.177 546.825 C 298.047 526.348 279.725 510.785 279.048 487.057 C 279.035 486.299 278.178 486.255 277.791 486.703 C 277.709 486.791 277.627 486.879 277.58 487.009 C 276.61 490.157 275.817 493.276 275.263 496.365 C 274.692 499.232 274.313 502.134 274.128 505.052 C 273.296 517.388 275.932 529.297 282.987 540.771 C 293.26 557.428 308.48 570.8 315.901 589.086 C 316.003 590.748 315.949 592.41 315.62 593.944 L 315.61 593.968 L 315.6 593.989 C 315.328 595.371 314.87 596.608 314.093 597.757 C 313.657 598.433 314.591 599.252 315.084 598.573 C 316.347 596.883 317.014 594.975 317.321 592.971 L 317.427 593.256 L 317.525 593.468 C 317.615 593.619 317.752 593.735 317.915 593.8 C 318.576 594.09 319.569 593.473 319.273 592.57 C 318.943 591.567 318.587 590.573 318.205 589.588 C 317.964 588.933 317.688 588.291 317.435 587.658 C 317.116 584.016 316.184 580.315 315.64 577.043 C 313.9 566.728 311.452 556.409 307.177 546.825 M 413.627 540.576 L 413.363 540.636 C 392.873 550.446 372.919 561.34 353.712 573.483 C 341.453 581.197 328.888 589.005 317.896 598.543 L 317.637 598.771 L 317.611 598.801 L 317.6 598.822 C 315.933 600.243 314.316 601.722 312.752 603.256 C 312.585 603.319 312.417 603.38 312.239 603.466 C 311.202 605.119 310.151 606.762 309.084 608.396 C 310.187 607.703 311.333 607.081 312.514 606.532 C 312.644 606.465 312.772 606.398 312.905 606.349 C 313.922 605.872 314.958 605.437 316.011 605.045 L 317.001 604.677 L 317.225 604.614 C 324.411 602.064 332.385 600.768 339.176 598.44 C 348.919 595.115 358.466 590.85 366.848 584.781 C 381.703 574.081 392.678 559.092 406.692 547.461 L 406.782 547.391 C 409.1 545.461 411.507 543.614 414.045 541.909 C 414.62 541.505 414.243 540.539 413.627 540.576" style="fill-opacity: 0.15;"/>
  <path d="M 311.92 607.859 C 312.255 607.373 312.577 606.852 312.905 606.348 C 312.985 606.205 313.089 606.071 313.18 605.904 L 313.197 605.897 C 313.477 605.469 313.757 605.041 314.032 604.596 C 315.235 602.684 316.426 600.766 317.607 598.84 L 317.6 598.822 L 317.61 598.802 L 317.637 598.771 C 317.719 598.627 317.815 598.477 317.912 598.325 C 322.754 590.357 327.316 582.222 331.589 573.935 L 331.616 573.905 L 331.646 573.836 C 332.137 572.891 332.626 571.946 333.104 570.966 L 333.114 570.943 L 333.125 570.921 L 333.136 570.897 L 333.146 570.875 L 333.175 570.845 C 333.237 570.708 333.317 570.563 333.381 570.425 C 333.924 569.365 334.449 568.312 334.979 567.216 C 340.663 555.716 346.229 543.076 351.243 529.457 C 351.488 528.831 351.717 528.212 351.94 527.576 L 351.956 527.569 C 352.032 527.312 352.132 527.065 352.226 526.801 C 352.308 526.56 352.391 526.321 352.48 526.097 L 352.496 526.091 C 354.504 520.467 356.375 514.796 358.106 509.081 L 358.126 509.035 C 363.126 492.589 367.188 474.948 369.736 456.36 C 369.892 455.204 369.08 454.14 367.923 453.987 C 366.775 453.836 365.721 454.644 365.568 455.792 C 364.822 461.285 363.927 466.757 362.883 472.202 L 362.884 472.257 C 359.991 487.477 356.131 501.947 351.661 515.537 L 351.667 515.553 C 350.225 519.929 348.698 524.276 347.087 528.593 C 346.979 528.919 346.837 529.257 346.712 529.591 L 346.719 529.607 C 343.277 538.781 339.488 547.822 335.361 556.709 L 335.097 557.284 C 334.585 558.372 334.081 559.434 333.579 560.5 C 333.144 561.386 332.727 562.268 332.319 563.125 C 327.946 572.119 323.238 580.946 318.205 589.588 C 318.045 589.878 317.869 590.171 317.703 590.443 C 317.573 590.661 317.445 590.881 317.316 591.101 C 316.743 592.077 316.18 593.031 315.62 593.944 L 315.61 593.968 L 315.6 593.989 C 313.926 596.796 312.216 599.582 310.47 602.345 C 309.434 603.985 308.384 605.616 307.319 607.237" style="fill-opacity: 0.3;"/>
  <path d="M 401.875 479.416 C 386.538 497.152 372.814 510.596 353.349 523.67 C 352.761 525.387 352.353 526.474 351.26 529.442 C 371.009 516.178 389.278 500.018 404.841 482.024 C 406.507 480.1 403.539 477.492 401.875 479.416 M 386.27 528.187 L 336.055 565.008 C 334.79 567.565 334.338 568.576 332.291 572.579 L 388.468 531.469 C 390.52 529.971 388.327 526.685 386.271 528.187 M 377.296 565.59 C 353.966 577.184 331.403 590.26 309.746 604.74 C 307.628 606.156 309.829 609.436 311.944 608.022 C 333.602 593.544 356.165 580.467 379.494 568.873 C 381.768 567.741 379.543 564.473 377.296 565.589" style="fill-opacity: 0.3;"/>
  <path d="M 323.283 526.96 C 315.513 511.967 308.653 497.673 308.167 480.467 C 308.093 477.925 304.155 478.229 304.228 480.769 C 304.661 496.093 309.848 509.611 316.823 523.073 C 324.003 536.933 331.807 549.688 331.07 565.802 C 332.285 563.169 333.281 561.033 334.571 558.521 M 319.597 593.686 C 316.767 580.315 311.024 567.96 304.672 555.934 C 297.587 542.521 290.22 529.251 282.98 515.92 C 281.764 513.683 278.493 515.9 279.697 518.117 C 286.664 530.945 293.717 543.731 300.583 556.614 C 307.092 568.831 312.984 581.367 315.865 594.98 C 316.391 597.464 320.117 596.146 319.597 593.686 M 278.25 577.832 C 287.581 589.404 292.845 589.645 283.784 578.417 C 274.541 566.967 265.041 555.341 261.899 540.597 C 261.369 538.114 257.643 539.432 258.167 541.889 C 261.112 555.712 269.548 567.043 278.249 577.832" style="fill-opacity: 0.3;"/>
  <path d="M169.7 609.539h138.961c10.607 0 16.938-8.6 14.139-19.207L217.173 189.917c-2.798-10.608-13.665-19.205-24.273-19.205H53.939c-10.607 0-16.938 8.597-14.14 19.205l105.628 400.415c2.798 10.607 13.665 19.207 24.273 19.207" fill="#36414a"/>
  <path d="M171.003 593.436h133.41c10.607 0 16.938-8.599 14.14-19.207l-101.38-384.312c-2.798-10.608-13.665-19.205-24.273-19.205H59.49c-10.607 0-16.938 8.597-14.14 19.205L146.73 574.23c2.8 10.608 13.666 19.207 24.273 19.207" fill="#607783"/>
  <path d="M62.843 178.285h137.71c6.064 0 12.278 4.916 13.878 10.982L320.4 590.984c1.6 6.063-2.02 10.98-8.084 10.98h-137.71c-6.064 0-12.278-4.917-13.876-10.98L54.759 189.267c-1.6-6.066 2.02-10.982 8.084-10.982" fill="#edf0f1"/>
  <path d="M143.376 182.015c-5.377.098-1.367 11.512 4.013 11.414 5.378-.1 1.367-11.513-4.013-11.414" fill="#36414a"/>
  <path d="M499.925 332.655l-9.333 25.214-35.415-7.081-1.624 6.213-.498 1.907 37.832 16.461c7.513 3.27 15.662-3.093 14.31-11.176l-5.272-31.538" fill="#fabeb3"/>
  <path d="M505.197 364.193l-5.272-31.538-4.53 12.238c2.456 8.123 4.225 16.266 2.582 24.976-.054.29-.101.579-.164.871.063-.292.11-.581.164-.87-15.824 2.315-29.664-7.63-44.424-12.869l-.498 1.907 37.832 16.461c7.513 3.27 15.662-3.093 14.31-11.176M440.564 343.676l-6.855 4.341 6.855 8.924 5.65 2.55 6.84-.583 2.123-8.12-14.613-7.112" fill="#f79984"/>
  <path d="M453.553 357.001l-4.006-1.777a11.68 11.68 0 01-5.563-6.46l-.779-2.22-7.738-3.59a1.145 1.145 0 01.807-2.133l10.253 1.4a8.225 8.225 0 015.985 4l2.665 4.567-1.624 6.213" fill="#fabeb3"/>
  <path d="M469.91 244.33c-.78 9.1 5.206 18.353 13.823 21.374 4.312 1.512 9.494 1.836 12.335 5.41 2.675 3.365 2.097 8.151 1.827 12.44-.271 4.289.386 9.423 4.192 11.417 2.636 1.381 5.597.668 8.604-.046 2.481-.589 4.993-1.178 7.377-.589 5.205 1.287 7.461 7.483 7.712 12.839.25 5.354-.575 11.053 1.89 15.814 2.403 4.648 7.589 7.37 12.782 8.019 5.192.65 10.437-.485 15.48-1.884 6.164-1.71 12.31-3.877 17.51-7.604 5.2-3.727 9.402-9.208 10.417-15.524 1.014-6.316-1.69-13.383-7.298-16.46-3.282-1.801-7.544-2.399-9.57-5.545-2.15-3.335-.644-7.71.837-11.39 1.48-3.678 2.795-8.181.393-11.336-4.364-5.732-15.492-.5-19.852-6.234-1.692-2.226-1.585-5.27-1.744-8.06-.768-13.526-10.289-26.144-23.085-30.594-8.483-2.952-18.064-2.19-26.161 1.594-4.136 1.932-6.93 5.361-10.743 7.542-3.659 2.094-7.261 2.72-10.44 5.85-3.488 3.436-5.864 8.061-6.285 12.966" fill="#be2e22"/>
  <path d="M576.561 289.536c-3.282-1.801-7.544-2.399-9.57-5.545-2.15-3.335-.644-7.71.837-11.39 1.48-3.678 2.795-8.181.393-11.336-4.364-5.732-15.492-.5-19.852-6.234-1.692-2.226-1.585-5.27-1.744-8.06-.764-13.452-10.19-26-22.882-30.514 8.369 5.383 14.732 14.184 16.976 23.847.764 3.296.95 6.676.873 10.05-.107 4.731-3.095 10.698 2.965 12.905 4.263 1.553 8.912.985 12.182 4.834 1.914 2.254 1.876 4.975 1.04 7.671-.818 2.63-1.331 4.908-.382 7.604.919 2.601 2.755 4.93 4.595 6.945 1.687 1.847 3.365 3.771 3.444 6.408.075 2.567-1.272 5.183-2.999 7.01-3.273 3.46-8.493 5.126-13.088 5.82-4.314.652-8.61.181-11.996-2.786-3.165-2.773-4.78-7.006-6.276-10.818-.85-2.171-1.605-4.3-3.393-5.898-1.547-1.381-3.52-2.106-5.504-2.602-4.664-1.167-10.076-.638-14.412-2.846-3.875-1.973-4.56-6.129-4.38-10.074.172-3.776 1.053-8.388-2.365-11.04-1.814-1.408-4.128-1.97-6.327-2.446-2.292-.496-4.579-1.044-6.812-1.766-4.877-1.578-9.524-4.02-12.624-8.219-2.745-3.716-3.58-8.281-3.253-12.824.033-.457.084-.919.138-1.38-1.212 2.323-2.009 4.857-2.234 7.477-.78 9.1 5.205 18.354 13.822 21.375 4.311 1.512 9.494 1.836 12.335 5.41 2.675 3.365 2.097 8.151 1.827 12.44-.271 4.289.386 9.423 4.192 11.417 2.636 1.381 5.597.668 8.604-.046 2.481-.589 4.993-1.178 7.377-.589 5.205 1.287 7.461 7.483 7.712 12.839.25 5.354-.575 11.053 1.89 15.814 2.403 4.648 7.589 7.37 12.782 8.019 5.192.65 10.437-.485 15.48-1.884 6.164-1.71 12.31-3.877 17.51-7.604 5.2-3.727 9.402-9.208 10.417-15.524 1.014-6.316-1.69-13.383-7.298-16.46" fill="#8e2e1c"/>
  <path d="M553.268 596.661l-9.15 1.79-3.72-26.122 15.535-2.27-2.665 26.602" fill="#fabeb3"/>
  <path d="M512.093 403.26l39.5-1.99 2.834 31.6-4.968 56.562 8.818 18.668-2.344 61.959-15.536 2.27-11.93-71.358-16.374-97.711" fill="#252d33"/>
  <path d="M554.084 594.236l4.433 13.433-44.772.666.407-2.976 27.993-12.696 3.778 2.95 8.161-1.377" fill="#fff"/>
  <path d="M576.964 595.925l-9.728 1.902-4.397-27.768 16.117-1.403-1.992 27.27" fill="#fabeb3"/>
  <path d="M572.625 401.908a581.618 581.618 0 00-36.864 4.153l14.522 88.979 12.556 75.019 16.117-1.403 1.992-45.137a59.019 59.019 0 00-11.347-37.779l9.776-32.476c1.966-3.332 5.382-23.548 3.159-43.163-.563-4.968-4.925-8.596-9.91-8.193" fill="#33414b"/>
  <path d="M577.835 593.345l4.712 14.283-47.596.707.432-3.164 29.757-13.498 4.017 3.137 8.678-1.465" fill="#fff"/>
  <path d="M571.997 468.724l-11.034 30.03c-.608 1.657 1.969 2.131 2.572.491l11.032-30.03c.609-1.658-1.967-2.131-2.57-.491M570.937 490.91c-.73-.195-1.408.185-1.738.88l-3.828 8.071c-.308.65.102 1.496.748 1.668.729.192 1.408-.186 1.737-.881l3.83-8.072c.309-.65-.103-1.496-.749-1.667" fill="#252d33"/>
  <path d="M576.257 411.317c-16.656 12.746-38.854 17.667-59.336 13.146-1.661-.367-2.473 2.176-.793 2.546 21.457 4.736 44.46-.353 61.91-13.706 1.366-1.046-.425-3.023-1.78-1.986M526.287 346.887c-1.098-3.151-2.906-6.011-5.4-8.244-.518-.464-1.331-.646-1.883-.103-.47.46-.66 1.387-.104 1.884a18.381 18.381 0 012.305 2.473c.115.148.227.3.338.452l.145.204.013.018.039.06a18.821 18.821 0 011.583 2.917c.074.173.145.347.214.523l.09.234.032.08.022.07c.23.657.834 1.217 1.588 1.02.63-.167 1.263-.884 1.018-1.588" fill="#d1dadd"/>
  <path d="M512.915 289.417c2.276.595 6.928-2.101 11.506-4.797 4.191-2.467 8.32-4.933 10.515-4.879 4.59.115 16.64-.598 20.107 10.706 2.936 9.581-2.619 21.497-5.588 31.272-1.57 5.164-3.507 10.304-3.947 15.594-.667 8.131 2.328 15.939 6.823 22.356 4.496 6.406 24.249 24.86 31.41 50.748-15.913 18.596-49.473 24.158-71.648 17.798-1.362-17.535-10.858-66.896-11.204-84.808-.021-1.072-.434-1.802-1.094-2.392-5.804-5.195-8.916-12.763-6.966-20.304 3.11-12.024 8.435-18.432 20.086-31.294" fill="#fff"/>
  <g clip-path="url(#a)" transform="matrix(0.13333, 0, 0, -0.13333, 0, 666.666992)">
    <path d="M3756.68 2322.69h8.352v101.219h-8.352z" fill="#e0c2bc"/>
  </g>
  <path d="M546.156 333.055c.144-.675.304-1.348.477-2.02.003-.002.004-.002.007-.002-.172.668-.33 1.338-.473 2.008l-.011.014" fill="#d8dae8"/>
  <path d="M546.633 331.035c.794-3.079 1.85-6.13 2.783-9.187-.933 3.057-1.985 6.107-2.776 9.185-.003 0-.004 0-.007.002m2.79-9.208l.01-.035c-.004.01-.006.023-.01.035m.016-.055l.016-.053-.016.053" fill="#b59587"/>
  <path d="M508.656 366.855a94.783 94.783 0 01-5.448-1.35 312.077 312.077 0 01-1.204-8.53c-.627-5.35-1.04-9.987-1.113-13.462v-.029-.005c-.002-.024-.002-.048-.002-.072-.021-1.072-.434-1.802-1.094-2.392-2.574-2.304-4.615-5.076-5.923-8.104 2.91.45 5.803.668 8.661.668 15.227 0 29.474-6.171 40.338-16.126.824-.754 1.78-1.084 2.712-1.084 2.48 0 4.782 2.338 3.921 5.19l-.05.16-.015.053-.006.02c-.004.01-.006.023-.01.035l-.007.021c-.933 3.057-1.99 6.108-2.783 9.187a49.253 49.253 0 00-.477 2.02c-1.59 2.298-3.096 4.66-4.623 7.004-3.177 4.877-6.588 9.297-10.97 13.157-4.272 3.765-8.99 6.997-14.006 9.687a158.681 158.681 0 01-7.901 3.952" fill="#e4e9eb"/>
  <path d="M532.925 286.508c-1.32 3.153-3.837 5.768-7.022 7.064-3.576 1.453-7.666 1.165-11.047-.67-.756-.409-1.383.769-.627 1.178 3.67 1.99 8.19 2.344 12.079.763a14.38 14.38 0 007.795-7.707c.329-.787-.846-1.42-1.178-.628" fill="#d1dadd"/>
  <path d="M457.212 322.297l-.284-.133s-3.275-1.537-5.865-2.755a2.3 2.3 0 00-3.224 1.575c-.295 1.299-.671 2.599-.722 2.968-.518 3.74-.388 7.54.48 11.217.471 1.996.916 4.651 3.02 5.564.335.146 4.252 1.746 4.224 1.836l.688-2.405 1.727-6.055-.044-11.812" fill="#fabeb3"/>
  <path d="M484.573 337.127l-28.616-4.707-1.116 10.15 49.055 16.338 1.533-10.39 1.146-7.773-22.002-3.618" fill="#fabeb3"/>
  <path d="M506.575 340.745l-22.002-3.618-28.616-4.707-.882 8.03c16.226 4.786 32.478 12.314 49.624 13.013l.73-4.946 1.146-7.772" fill="#fabeb3"/>
  <path d="M509.773 353.455c11.451-11.37 22.811-21.708 31.77-35.635-4.054-2.519-7.451-6.348-11.51-8.856l-23.458 31.781-1.876 12.718c1.682.068 3.374.06 5.074-.008" fill="#fabeb3"/>
  <path d="M531.475 307.013l-1.442 1.951c4.059 2.508 7.456 6.337 11.51 8.856-8.959 13.927-20.319 24.265-31.77 35.635-1.7.068-3.392.076-5.074.008-17.146-.699-31.216-5.46-47.443-10.247l-2.415-.645 49.055 16.337c15.999 5.328 42.968-41.515 42.968-41.515l-15.39-10.38" fill="#f79984"/>
  <path d="M547.88 316.497c-5.348-3.546-10.695-7.093-16.04-10.641-.601-.399-1.49-.043-1.805.55-.367.686-.052 1.403.549 1.803l16.04 10.642c.601.398 1.49.044 1.804-.55.367-.686.053-1.404-.548-1.804" fill="#d1dadd"/>
  <path d="M497.847 243.141c7.561 3.727 18.112 9.622 26.124 4.275 1.445-.964 2.496-2.12 3.226-3.373.904-.078 1.824.121 2.768.79 2.524 1.79 3.595 5.384 2.596 8.29-1.064 3.096-3.55 4.162-6.796 4.593.608 8.905 3.126 15.605 5.808 24.603-.99 4.589-2.656 7.246-6.31 8.978-3.654 1.735-4.534 1.678-8.339.308-.832-4.493-1.836-10.594-3.37-14.898-2.85 1.897-9.62 3.973-12.69 3.885-1.159-.033-13.432-18.86-13.565-44.813 3.061 2.961 6.626 5.43 10.548 7.362" fill="#fabeb3"/>
  <path d="M506.953 279.493c2.547-.754 5.11-1.794 6.6-2.786 1.335 3.742 2.268 8.844 3.036 13.066l-.36-16.2-9.276 5.92M524.523 248.476a7.807 7.807 0 013.128-2.365c.649-.274.985.87.348 1.154-1.062.471-1.978 1.21-2.712 2.192a7.552 7.552 0 00-.876 1.523c-.215.497-.279.899-.678 1.236-.214.18-.562.032-.638-.253-.306-1.158.78-2.667 1.428-3.487" fill="#f79984"/>
  <path d="M504.068 251.504c-.101-.505-.247-1.015-.108-1.523a1.015 1.015 0 011.659-.498c.392.348.554.852.744 1.329.174.437.306.855.394 1.317.291 1.519-1.708 2.135-2.3.694a7.096 7.096 0 01-.389-1.319M491.216 253.047c-.085-.507-.213-1.02-.057-1.524a1.014 1.014 0 011.673-.444c.381.361.525.87.7 1.354.159.443.277.863.35 1.33.24 1.528-1.778 2.076-2.32.616a6.84 6.84 0 01-.346-1.332" fill="#40261d"/>
  <path d="M500.75 269.317a33.216 33.216 0 008.917-4.772c-2.05 2.822-5.135 4.372-8.356 5.432a6.984 6.984 0 00-.562-.66" fill="#fff"/>
  <path d="M509.667 264.545c.134-.101.274-.198.408-.302.045.63.022 1.274-.059 1.91-.183 1.443-.697 2.843-1.624 3.935-1.336 1.573-3.295 2.61-5.35 2.795-.351-.636-.691-1.295-1.07-1.924-.205-.34-.424-.668-.661-.982 3.221-1.06 6.306-2.61 8.356-5.432" fill="#b51d24"/>
  <path d="M499.904 241.887c3.299-.942 6.645-.647 9.728.857.735.359.143 1.484-.593 1.124-2.774-1.355-5.774-1.62-8.744-.77-.786.223-1.176-.986-.391-1.211M488.664 246.397a5.372 5.372 0 013.08-2.697c.775-.268 1.163.943.392 1.21a4.08 4.08 0 00-2.35 2.08c-.362.734-1.487.14-1.122-.593" fill="#be2e22"/>
  <path d="M498.87 265.583c-.751-.454-1.693-.362-2.53-.474-.479-.064-1.177-.253-1.38-.742-.13-.318.061-.688.179-.983.176-.443.356-.885.53-1.328.35-.89.726-1.767.974-2.69.168-.62-.728-.983-1.044-.422-.536.95-.928 1.975-1.35 2.98-.382.916-.986 1.948-.561 2.952.332.781 1.116 1.257 1.912 1.467.463.121.955.141 1.43.177.473.037.902.136 1.36.25.717.18 1.106-.809.48-1.187" fill="#40261d"/>
  <path d="M456.497 321.255a45.688 45.688 0 00-15.477-6.694c-1.675-.38-2.283 2.218-.608 2.598a43.653 43.653 0 0114.83 6.449c.597.404 1.489.039 1.803-.55.37-.691.05-1.4-.548-1.803" fill="#fabeb3"/>
  <path d="M449.937 322.313c-2.52-2.245-5.708-3.737-9.064-4.146-.69-.084-1.461.234-1.602.994-.122.647.253 1.512.993 1.603.745.09 1.484.23 2.21.428.817.223 1.267.384 1.993.712 1.438.65 2.545 1.375 3.658 2.367.523.465 1.414.482 1.884-.074.462-.541.484-1.388-.072-1.884M448.97 326.068a17.479 17.479 0 00-7.834-4.296c-.677-.168-1.47.293-1.603.995-.134.718.27 1.422.995 1.602a16.994 16.994 0 011.45.428l.227.083h.004l.012.007c.634.268 1.258.541 1.862.873a15.85 15.85 0 011.238.756l.211.144.056.041c.55.411 1.075.85 1.572 1.324.505.483 1.423.47 1.884-.073.472-.557.465-1.37-.075-1.884M449.77 332.041a19.417 19.417 0 00-8.355-5.898c-.658-.24-1.482.345-1.603.993-.147.783.29 1.347.993 1.604l.063.021.017.007.228.092a17.982 17.982 0 011.504.697c.671.351 1.315.75 1.939 1.18l.007.004.014.014.247.182a17.936 17.936 0 011.272 1.063 18.767 18.767 0 011.165 1.179l.163.184c.01.012.267.314.099.113.444.535 1.201.855 1.841.407.532-.372.883-1.268.407-1.842" fill="#fabeb3"/>
  <path d="M395.716 355.581l17.003 1.1 10.21-7.881h2.803l-6.124-7.13-8.017-1.349-15.875 10.995v4.265" fill="#f79984"/>
  <path d="M395.716 351.316l5.853-1.34a15.939 15.939 0 009.604-6.548l1.81-2.652 11.458-2a1.558 1.558 0 00-.309-3.095l-14.003-1.769a11.206 11.206 0 00-9.292 3.16l-5.121 5.075v9.169M320.981 589.839H303.71l-.106-6.258h17.513l-.135 6.258" fill="#fabeb3"/>
  <path d="M350.952 602.884l-29.51-13.045h-19.073l-3.126 16.108h53.44l-1.731-3.063" style="fill: rgb(228, 0, 101);"/>
  <path d="M299.243 605.947l-.494 2.544h55.37l-1.436-2.544h-53.44" fill="#fff"/>
  <path d="M237.492 466.49v-69.622l9.2 3.532c5.621 2.157 8.45 8.447 6.332 14.084a9.52 9.52 0 003 10.81l70.073 55.517a12.548 12.548 0 014.735 10.556l-5.303 92.214h-28.314l-2.999-79.066-56.724-38.026" fill="#252d33"/>
  <path d="M240.04 401.27l.239 24.205 44.532 49.87a19.98 19.98 0 015.072 13.632 26.312 26.312 0 01-16.403 23.944l-69.693 28.32-9.586-30.406 58.686-22.547-31.5-12.877c-24.467-10.004-40.455-33.812-40.455-60.247l59.108-13.895" fill="#33414b"/>
  <path d="M270.597 489.433c-10.012-.744-19.782-3.616-28.645-8.318-1.52-.806-2.73 1.57-1.215 2.374 9.308 4.938 19.508 7.827 30.01 8.607 1.706.125 1.541-2.537-.15-2.663M260.983 493.799l-6.683-4.102c-.595-.365-1.48-.208-1.837.423-.355.624-.212 1.448.422 1.839l6.683 4.1c.595.365 1.48.208 1.839-.423.353-.624.212-1.448-.424-1.837" fill="#252d33"/>
  <path d="M289.15 325.301c3.569-6.101 7.163-11.857 13.291-8.14 9.534 5.783 18.339 9.77 29.619 13.995l-11.199 24.464c-11.234-2.981-24.298-4.696-34.51-10.89-6.1-3.7-.846-13.195 2.8-19.429" style="fill: rgb(228, 0, 101);"/>
  <path d="M344.508 338.207l-11.945-5.552c-2.644 8.077-6.539 15.458-12.022 21.8l22.768 7.108 52.407-5.982v-13.434l-51.208-3.94" fill="#fabeb3"/>
  <path d="M341.09 357.053l54.626-5.216v-9.69l-51.208-3.94-10.784-5.014c-.373 7.15-2.385 13.479-6.05 18.983l13.417 4.877" fill="#fabeb3"/>
  <path d="M341.09 357.053l-13.415-4.877c3.664-5.504 5.676-11.833 6.049-18.983l-1.664-.773-.525-.225c-1.834 7.96-4.986 15.856-10.831 22.31l22.605 7.058 52.407-5.982v-3.744l-54.625 5.216" fill="#f79984"/>
  <path d="M331.139 331.24A79.804 79.804 0 01320 354.136c-.988 1.405 1.259 2.843 2.244 1.44a82.242 82.242 0 0011.44-23.544c.495-1.64-2.05-2.441-2.546-.792" style="fill: rgb(189, 0, 84);"/>
  <path d="M254.452 408.025c.75-5.337 2.47-10.506 4.45-15.501 7.973-20.116 19.355-39.645 34.142-55.508 4.792-5.141 10.027-9.828 15.677-13.952-15.105-15.552-39.496-29.233-63.356-34.381-9.914-2.139-19.886 3.362-23.432 12.865l-18.148 22.444a119.13 119.13 0 00-19.97 113.781v.002c30.616-20.827 63.589-23.567 70.62-21.178-.495-2.808-.38-5.734.017-8.572" style="fill: rgb(228, 0, 101);"/>
  <path d="M225.8 401.52c-10.976 1.225-21.756 3.923-31.899 8.532-9.165-41.244 13.171-78.547 39.096-109.377 3.703-4.404-2.656-10.31-6.644-6.163a20.432 20.432 0 00-4.42 7.036l-18.148 22.444a119.13 119.13 0 00-19.97 113.781v.002c2.72-1.85 5.458-3.551 8.194-5.124.582-3.176 1.595-6.276 3.226-9.266 5.716-12.384 18.917-14.558 31.34-17.708 2.552-.646 1.841-4.449-.775-4.157M249.521 407.461c-8.333-.424-16.61 1.006-24.349 4.107-1.59.637-.304 2.975 1.275 2.343 7.29-2.922 15.157-4.183 22.993-3.784 1.715.086 1.796-2.58.081-2.666" style="fill: rgb(189, 0, 84);"/>
  <path d="M285.65 343.97c-14.091 15.323-24.486 33.914-30.095 53.971a132.667 132.667 0 00-3.604 17.382c-.238 1.697 2.428 1.8 2.665.11 2.804-20.052 10.423-39.345 21.98-55.962a127.527 127.527 0 0110.835-13.516c1.153-1.255-.619-3.248-1.782-1.986" style="fill: rgb(189, 0, 84);"/>
  <path d="M200.104 383.576s8.836 3.939 14.764 7.144c1.847 6.632-3.059 12.915-8.525 15.747-4.428 2.294-10.075 2.03-14.271-.667-4.196-2.697-6.78-7.725-6.53-12.707l14.562-9.517" fill="#fabeb3"/>
  <path d="M226.69 408.55c-1.203-7.725-5.905-14.367-12.68-18.223-2.767-1.572-5.277 2.681-2.51 4.256 5.77 3.284 9.404 8.721 10.421 15.261.487 3.132 5.252 1.821 4.768-1.295" fill="#fabeb3"/>
  <path d="M221.059 412.317c-1.202-7.722-5.904-14.368-12.679-18.221-2.767-1.575-5.276 2.68-2.51 4.253 5.771 3.284 9.403 8.722 10.42 15.262.489 3.132 5.254 1.824 4.769-1.294" fill="#fabeb3"/>
  <path d="M213.917 414.312c-1.202-7.724-5.904-14.368-12.68-18.223-2.765-1.574-5.274 2.68-2.509 4.254 5.77 3.284 9.404 8.721 10.421 15.261.487 3.133 5.252 1.824 4.768-1.292" fill="#fabeb3"/>
  <path d="M206.48 414.281c-1.2-7.724-5.903-14.366-12.679-18.222-2.765-1.574-5.274 2.681-2.509 4.254 5.772 3.284 9.404 8.722 10.421 15.262.488 3.133 5.252 1.822 4.767-1.294M200.104 383.576l-18.015-51.61 51.707-18.409-10.863-23.105-66.826 21.996c-4.144 1.364-6.15 6.057-4.271 9.995l33.705 70.65 14.563-9.517" fill="#fabeb3"/>
  <path d="M233.796 313.557l-10.863-23.105-18.693 6.152c-.539 7.364-.783 14.655 1.277 21.372-9.378 5.199-20.606 9.14-30.652 12.035 4.038 2.746 7.203 5.98 9.892 9.6l-2.668-7.646 51.707-18.408" fill="#f79984"/>
  <path d="M174.865 330.01c10.046-2.894 21.274-6.835 30.652-12.034-2.06-6.717-1.816-14.008-1.277-21.372l-48.133 15.844c-4.144 1.364-6.15 6.057-4.271 9.995l33.705 70.65 14.563-9.517-15.347-43.965c-2.689-3.62-5.854-6.854-9.892-9.6" fill="#fabeb3"/>
  <path d="M197.02 326.815c11.835-4.578 22.964-7.59 35.865-10.115 7.067-1.384 12.928-8.372 11.252-16.128-1.578-7.303 4.094-11.761-3.602-12.35-19.492-1.486-39.116 6.367-51.88 11.118.766 9.339 3.641 18.952 8.365 27.475" style="fill: rgb(228, 0, 101);"/>
  <path d="M188.173 299.884a66.196 66.196 0 008.756 26.825c.871 1.483 3.114.042 2.247-1.437a63.022 63.022 0 01-8.339-25.528c-.173-1.7-2.838-1.573-2.664.14" style="fill: rgb(189, 0, 84);"/>
  <path d="M298.935 263.645c4.961-2.245 7.714-7.685 7.2-12.768-.516-5.082-3.914-9.678-8.386-12.674-4.472-2.996-9.928-4.53-15.401-5.222-4.612-.582-9.361-.596-13.863.498-2.284.556-4.653 1.52-5.818 3.42-1.166 1.898-.375 4.866 1.929 5.348-1.925-.311-4.012.682-4.857 2.312-.844 1.63-.372 3.754 1.098 4.946-2.224-.216-4.525 1.012-5.434 2.9-.908 1.89-.355 4.291 1.308 5.672-2.271.748-3.203 3.411-2.694 5.59.51 2.178 2.063 3.998 3.478 5.804a65.737 65.737 0 018.758 14.798 35.92 35.92 0 009.167-4.846" fill="#362315"/>
  <path d="M301.019 251.355c-2.886-.56-5.772-.368-8.692-.023-2.483.293-10.08 1.93-10.08 1.93-1.807 5.285-2.694 8.795-6.955 12.405-.405.342-.857.698-1.387.712-.71.02-1.492-.526-2.168-.726-.956-.285-1.89-.634-2.821-.994-2.92-1.128-6.095-2.715-8.95-.586-2.377 1.772-3.007 5.368-1.663 8.011 1.342 2.641 4.354 4.228 7.317 4.207 1.183 8.414.947 11.51-.327 19.912 1.464 3.989 5.232 8.968 8.726 10.061 3.492 1.095 7.442 1.125 10.682-.58.18-4.133.575-8.168 1.41-12.22 2.742.461 5.688.603 8.429.137 1.041-.176 2.141-.46 2.837-1.252.522-.596.738-1.393.936-2.16 3.188-12.253 3.986-25.921 2.706-38.834" fill="#fabeb3"/>
  <path d="M284.701 305.684c.18-4.133.575-8.168 1.41-12.22 1.534.259 3.13.41 4.721.417-3.57-.648-6.05-2.02-8.963-2.85.491 5.36 2.056 15.061 2.832 14.653M265.03 267.98a7.072 7.072 0 00-3.1-1.727c-.617-.162-.774.904-.167 1.078 1.01.289 1.924.836 2.705 1.624.37.373.696.793.977 1.254.256.419.363.772.763 1.024.215.135.51-.042.54-.306.128-1.078-1.033-2.294-1.717-2.947" fill="#f79984"/>
  <path d="M286.985 263.904c.027-.465.095-.94-.094-1.379a.92.92 0 00-1.55-.238c-.308.361-.389.833-.5 1.285a6.417 6.417 0 00-.188 1.23c-.069 1.398 1.8 1.7 2.148.333.107-.415.159-.804.184-1.231M300.32 262.803c-.09-.458-.145-.934-.44-1.31a.916.916 0 00-1.557.159c-.208.428-.167.905-.16 1.37.006.426.041.82.128 1.24.285 1.369 2.169 1.189 2.162-.22a6.235 6.235 0 00-.133-1.24" fill="#40261d"/>
  <path d="M285.65 285.141c2.326.2 4.46 1 6.36 2.35.505.358-.102 1.104-.606.745-1.767-1.253-3.743-1.96-5.9-2.144-.616-.053-.467-1.003.147-.95" fill="#f79984"/>
  <path d="M296.924 254.061c1.65-1.082 4.645.563 5.48 2.106.292.54-.333 1.336-.928 1.161-.8-.233-1.49-.693-2.275-.968-.757-.267-1.718-.27-2.314-.84-.407-.387-.495-1.11.037-1.459M282.55 255.828c1.591-1.901 5.133-2.42 7.465-2.256 1.112.079.976 1.717-.035 1.883-1.228.2-2.416.345-3.61.728-1.015.325-2.04.845-3.102.952-.687.068-1.175-.759-.717-1.307" fill="#362315"/>
  <path d="M283.775 274.336a41.681 41.681 0 0012.473 4.681c-.507.69-.893 1.458-1.233 2.252-3.919-.774-7.678-2.252-10.835-4.568a12.113 12.113 0 01-.405-2.365" fill="#f6f6f7"/>
  <path d="M295.015 281.27c-.363.849-.67 1.727-.994 2.58-2.588.126-5.201-.82-7.136-2.543-1.344-1.195-2.226-2.846-2.705-4.606 3.157 2.316 6.916 3.794 10.835 4.568" fill="#b51d24"/>
  <path d="M265.39 295.33c1.586 9.014 10.477 13.758 18.891 10.215 1.412-.594 2.03 1.714.634 2.302-9.571 4.028-20.027-1.663-21.826-11.882-.265-1.501 2.034-2.145 2.3-.634" fill="#d61e25"/>
  <path d="M307.021 229.827a226.532 226.532 0 00-9.613 5.385 16.034 16.034 0 01-.52-.492c-6.267-6.013-15.573-8.667-24.067-6.841-8.48 1.814-15.893 8.041-19.146 16.094-2.92 7.239-2.814 16.534 1.586 22.827-.16.133-.306.28-.466.427-1.254 1.186.573 3.133 1.826 1.946a233.904 233.904 0 0124.974-20.52 230.178 230.178 0 0117.76-11.493 225.042 225.042 0 018.946-4.987c1.52-.8.24-3.146-1.28-2.346" style="fill: rgb(228, 0, 101);"/>
  <path d="M298.57 274.463l-3.28-11.704c-.231-.824-1.535-.544-1.303.284l3.097 11.052c-.97.197-1.941.394-2.912.593-.841.172-.557 1.475.284 1.303 1.201-.246 2.403-.49 3.604-.735.337-.07.605-.45.51-.793" fill="#40261d"/>
  <path d="M293.021 234.947c-12.236 9.405-24.474 18.81-36.712 28.214-1.362 1.048.428 3.026 1.782 1.987l36.712-28.216c1.364-1.048-.428-3.025-1.782-1.985" style="fill: rgb(189, 0, 84);"/>
  <path d="M373.048 365.944h105.37l-3.657 63.004h-98.057l-3.656-63.004" style="fill: rgb(189, 0, 84);"/>
  <path d="M474.761 428.948l3.658 18.123H373.048l3.656-18.123h98.057" style="fill: rgb(228, 0, 101);"/>
  <path d="M440.66 374.548V361.02c0-7.768-5.755-14.57-13.487-15.297-8.876-.836-16.366 6.153-16.366 14.858v13.967a1.22 1.22 0 11-2.439 0v-13.464c0-9.339 7.163-17.385 16.49-17.845 9.973-.492 18.24 7.477 18.24 17.342v13.967a1.22 1.22 0 01-2.438 0" fill="#252d33"/>
  <path d="M432.47 349.76a1.417 1.417 0 01.382-1.967l5.504-3.716a1.418 1.418 0 011.967.38c.437.648.266 1.53-.382 1.967l-5.504 3.716c-.649.437-1.529.267-1.966-.38M434.257 352.308a1.417 1.417 0 01.38-1.967l5.504-3.716a1.416 1.416 0 111.585 2.347l-5.503 3.716a1.415 1.415 0 01-1.966-.38M436.639 355.101a1.416 1.416 0 01.381-1.965l5.504-3.716a1.417 1.417 0 011.585 2.347l-5.504 3.716c-.649.437-1.529.266-1.966-.382M438.41 357.48a1.417 1.417 0 01.382-1.967l4.792-3.236a1.417 1.417 0 011.585 2.348l-4.792 3.236a1.417 1.417 0 01-1.966-.381" fill="#fabeb3"/>
  <path d="M213.763 561.88l-24.559-75.764c-1.05-3.241-6.245-2.015-5.183 1.261 8.187 25.255 16.374 50.51 24.559 75.764 1.05 3.242 6.245 2.015 5.183-1.26M185.607 472.783l-3.431-9.52c-.243-.676-.545-1.235-1.176-1.631-.561-.352-1.399-.519-2.047-.33-1.265.366-2.466 1.817-1.96 3.222l3.43 9.521c.244.675.546 1.234 1.177 1.63.561.352 1.399.518 2.045.33 1.266-.368 2.468-1.817 1.962-3.222M161.03 393.843l-9.606-31.971c-.983-3.27-6.176-2.04-5.184 1.261l9.607 31.971c.984 3.272 6.176 2.04 5.184-1.261" style="fill: rgb(255, 222, 6);"/>
  <path d="M427.639 349.016a1.93 1.93 0 00.19-2.724l-5.938-6.836a1.931 1.931 0 00-2.916 2.533l5.94 6.835c.7.805 1.92.89 2.724.192M422.737 351.524c.806-.7.891-1.92.192-2.724l-5.94-6.835a1.93 1.93 0 10-2.916 2.532l5.94 6.835c.7.807 1.92.89 2.724.192M418.616 354.365c.804-.701.89-1.92.19-2.724l-5.94-6.836a1.931 1.931 0 10-2.914 2.532l5.939 6.836c.7.806 1.918.891 2.725.192M415.443 356.873c.804-.7.89-1.92.19-2.724l-5.172-5.952a1.931 1.931 0 00-2.914 2.534l5.172 5.95c.698.806 1.918.891 2.724.192" fill="#fabeb3"/>
</svg>