<svg viewBox="-42 0 512 512.001" xmlns="http://www.w3.org/2000/svg"><g fill="#d8d6d4"><path d="m56.40625 72.722656h-32.769531c-8.863281 0-16.046875-7.183594-16.046875-16.046875 0-8.859375 7.183594-16.042969 16.046875-16.042969h32.769531c8.863281 0 16.046875 7.183594 16.046875 16.042969 0 8.863281-7.183594 16.046875-16.046875 16.046875zm0 0"/><path d="m56.40625 152.449219h-32.769531c-8.863281 0-16.046875-7.183594-16.046875-16.042969s7.183594-16.042969 16.046875-16.042969h32.769531c8.863281 0 16.046875 7.183594 16.046875 16.042969s-7.183594 16.042969-16.046875 16.042969zm0 0"/><path d="m56.40625 232.179688h-32.769531c-8.863281 0-16.046875-7.183594-16.046875-16.042969 0-8.863281 7.183594-16.042969 16.046875-16.042969h32.769531c8.863281 0 16.046875 7.179688 16.046875 16.042969 0 8.859375-7.183594 16.042969-16.046875 16.042969zm0 0"/><path d="m56.40625 311.910156h-32.769531c-8.863281 0-16.046875-7.183594-16.046875-16.046875 0-8.859375 7.183594-16.042969 16.046875-16.042969h32.769531c8.863281 0 16.046875 7.183594 16.046875 16.042969 0 8.863281-7.183594 16.046875-16.046875 16.046875zm0 0"/><path d="m56.40625 391.636719h-32.769531c-8.863281 0-16.046875-7.183594-16.046875-16.042969s7.183594-16.042969 16.046875-16.042969h32.769531c8.863281 0 16.046875 7.183594 16.046875 16.042969s-7.183594 16.042969-16.046875 16.042969zm0 0"/><path d="m56.40625 471.367188h-32.769531c-8.863281 0-16.046875-7.183594-16.046875-16.042969s7.183594-16.042969 16.046875-16.042969h32.769531c8.863281 0 16.046875 7.183594 16.046875 16.042969s-7.183594 16.042969-16.046875 16.042969zm0 0"/></g><path d="m409.484375 504.410156h-359.441406c-6.484375 0-11.742188-5.257812-11.742188-11.742187v-473.339844c0-6.480469 5.257813-11.738281 11.742188-11.738281h359.441406c6.484375 0 11.738281 5.257812 11.738281 11.738281v473.34375c0 6.480469-5.253906 11.738281-11.738281 11.738281zm0 0" fill="#e88c38"/><path d="m409.484375 7.589844h-46.621094v496.820312h46.621094c6.484375 0 11.738281-5.257812 11.738281-11.738281v-473.34375c0-6.480469-5.253906-11.738281-11.738281-11.738281zm0 0" fill="#d38231"/><path d="m243.6875 118.449219h-27.847656l-2.789063-26.640625c-.53125-5.105469 3.472657-9.546875 8.605469-9.546875h16.214844c5.132812 0 9.136718 4.441406 8.605468 9.546875zm0 0" fill="#fff"/><path d="m336.253906 227.441406h-212.980468v-9.046875c0-58.8125 47.679687-106.492187 106.488281-106.492187 58.8125 0 106.492187 47.679687 106.492187 106.492187zm0 0" fill="#e2e2e2"/><path d="m229.761719 111.902344c-10.117188 0-19.90625 1.414062-29.179688 4.050781 44.625 12.6875 77.308594 53.746094 77.308594 102.441406v9.046875h58.363281v-9.046875c0-58.8125-47.679687-106.492187-106.492187-106.492187zm0 0" fill="#c9c9c9"/><path d="m351.03125 219.71875h-242.535156c-2.335938 0-4.230469 1.890625-4.230469 4.226562v15.664063c0 2.332031 1.894531 4.226563 4.230469 4.226563h242.535156c2.335938 0 4.226562-1.894532 4.226562-4.226563v-15.664063c0-2.335937-1.890624-4.226562-4.226562-4.226562zm0 0" fill="#d8d6d4"/><path d="m135.746094 380.710938c-.988282 1.796874-2.519532 2.335937-3.957032 2.335937s-2.875-.539063-3.863281-2.335937l-10.339843-19.417969v39.371093c0 2.429688-2.964844 3.6875-5.839844 3.6875-2.96875 0-5.84375-1.257812-5.84375-3.6875v-56.183593c0-4.3125 2.875-5.839844 5.84375-5.839844 4.222656 0 6.113281.898437 9.078125 6.199219l11.058593 20.136718 11.054688-20.136718c2.96875-5.300782 4.945312-6.199219 9.171875-6.199219 2.964844 0 5.839844 1.527344 5.839844 5.839844v56.183593c0 2.429688-2.964844 3.6875-5.839844 3.6875-2.96875 0-5.84375-1.257812-5.84375-3.6875v-38.652343zm0 0"/><path d="m190.484375 366.863281h13.664063c2.335937 0 3.683593 2.25 3.683593 4.675781 0 2.066407-1.167969 4.496094-3.683593 4.496094h-13.664063v18.066406h25.4375c2.339844 0 3.6875 2.425782 3.6875 5.214844 0 2.425782-1.167969 5.035156-3.6875 5.035156h-32c-2.605469 0-5.125-1.261718-5.125-3.6875v-58.339843c0-2.425781 2.515625-3.6875 5.125-3.6875h32c2.519531 0 3.6875 2.609375 3.6875 5.035156 0 2.789063-1.347656 5.214844-3.6875 5.214844h-25.4375zm0 0"/><path d="m267.519531 400.664062-19.328125-36.136718v36.136718c0 2.429688-2.964844 3.6875-5.84375 3.6875-2.964844 0-5.84375-1.257812-5.84375-3.6875v-58.339843c0-2.515625 2.878906-3.683594 5.84375-3.683594 4.226563 0 5.933594.898437 8.722656 6.199219l17.347657 33.53125v-36.136719c0-2.515625 2.875-3.597656 5.84375-3.597656 2.875 0 5.839843 1.078125 5.839843 3.597656v58.429687c0 2.425782-2.964843 3.6875-5.839843 3.6875-2.789063 0-5.214844-.898437-6.742188-3.6875zm0 0"/><path d="m332.148438 342.234375c0-2.515625 2.875-3.59375 5.839843-3.59375 2.878907 0 5.84375 1.078125 5.84375 3.59375v42.070313c0 15.011718-9.527343 20.585937-21.574219 20.585937-12.136718 0-21.574218-5.574219-21.574218-20.585937v-42.070313c0-2.515625 2.875-3.59375 5.84375-3.59375 2.875 0 5.839844 1.078125 5.839844 3.59375v42.070313c0 7.011718 3.6875 10.339843 9.890624 10.339843 6.203126 0 9.886719-3.328125 9.886719-10.339843v-42.070313zm0 0"/><path d="m355.257812 422.148438h-42.730468c-4.195313 0-7.59375 3.398437-7.59375 7.589843 0 4.195313 3.398437 7.589844 7.59375 7.589844h42.730468c4.195313 0 7.589844-3.394531 7.589844-7.589844 0-4.191406-3.394531-7.589843-7.589844-7.589843zm0 0"/><path d="m277.207031 422.148438h-172.941406c-4.191406 0-7.589844 3.398437-7.589844 7.589843 0 4.195313 3.398438 7.589844 7.589844 7.589844h172.941406c4.195313 0 7.589844-3.394531 7.589844-7.589844 0-4.191406-3.394531-7.589843-7.589844-7.589843zm0 0"/><path d="m355.257812 306.242188h-250.992187c-4.191406 0-7.589844 3.398437-7.589844 7.589843 0 4.191407 3.398438 7.589844 7.589844 7.589844h250.992187c4.195313 0 7.589844-3.398437 7.589844-7.589844 0-4.191406-3.394531-7.589843-7.589844-7.589843zm0 0"/><path d="m351.035156 212.128906h-7.367187c-2.84375-52.300781-41.074219-95.339844-91.109375-105.527344l1.464844-14.003906c.480468-4.570312-1.011719-9.148437-4.085938-12.558594-3.074219-3.414062-7.472656-5.371093-12.066406-5.371093h-16.214844c-4.597656 0-8.992188 1.960937-12.070312 5.371093-3.074219 3.414063-4.5625 7.992188-4.082032 12.558594l1.464844 14.003906c-50.035156 10.1875-88.265625 53.222657-91.109375 105.523438h-7.367187c-6.515626 0-11.816407 5.300781-11.816407 11.816406v15.664063c0 6.515625 5.300781 11.816406 11.816407 11.816406h242.539062c6.515625 0 11.816406-5.300781 11.816406-11.816406v-15.664063c0-6.511718-5.296875-11.8125-11.8125-11.8125zm-130.167968-121.929687c.210937-.230469.472656-.347657.789062-.347657h16.214844c.3125 0 .578125.117188.789062.347657.210938.234375.300782.511719.265625.820312l-1.417969 13.5625c-2.558593-.171875-5.140624-.269531-7.742187-.269531-2.605469 0-5.183594.097656-7.742187.269531l-1.421876-13.5625c-.03125-.308593.058594-.585937.265626-.820312zm126.800781 146.042969h-235.808594v-8.933594h31.988281c4.195313 0 7.59375-3.398438 7.59375-7.589844s-3.398437-7.589844-7.59375-7.589844h-12.777344c3.242188-51.625 46.265626-92.632812 98.691407-92.632812 52.429687 0 95.453125 41.007812 98.695312 92.632812h-149.289062c-4.195313 0-7.589844 3.398438-7.589844 7.589844s3.394531 7.589844 7.589844 7.589844h168.5zm0 0"/><path d="m409.484375 0h-359.441406c-10.65625 0-19.328125 8.671875-19.328125 19.328125v13.710937h-7.082032c-13.03125 0-23.632812 10.605469-23.632812 23.636719s10.601562 23.636719 23.632812 23.636719h7.082032v32.457031h-7.082032c-13.03125 0-23.632812 10.601563-23.632812 23.636719 0 13.03125 10.601562 23.632812 23.632812 23.632812h7.082032v32.460938h-7.082032c-13.03125 0-23.632812 10.601562-23.632812 23.636719 0 13.03125 10.601562 23.632812 23.632812 23.632812h7.082032v32.460938h-7.082032c-13.03125 0-23.632812 10.601562-23.632812 23.632812 0 13.035157 10.601562 23.636719 23.632812 23.636719h7.082032v32.460938h-7.082032c-13.03125 0-23.632812 10.601562-23.632812 23.632812 0 13.035156 10.601562 23.636719 23.632812 23.636719h7.082032v32.460937h-7.082032c-13.03125 0-23.632812 10.601563-23.632812 23.632813s10.601562 23.636719 23.632812 23.636719h7.082032v13.710937c0 10.65625 8.671875 19.328125 19.328125 19.328125h359.441406c10.65625 0 19.332031-8.671875 19.332031-19.328125v-473.34375c0-10.65625-8.675781-19.328125-19.332031-19.328125zm-378.773437 65.132812h-7.078126c-4.660156 0-8.453124-3.792968-8.453124-8.457031 0-4.660156 3.792968-8.453125 8.453124-8.453125h7.078126zm0 79.726563h-7.078126c-4.660156 0-8.453124-3.792969-8.453124-8.453125 0-4.664062 3.792968-8.453125 8.453124-8.453125h7.078126zm0 79.730469h-7.078126c-4.660156 0-8.453124-3.792969-8.453124-8.453125 0-4.664063 3.792968-8.457031 8.453124-8.457031h7.078126zm0 79.730468h-7.078126c-4.660156 0-8.453124-3.792968-8.453124-8.457031 0-4.660156 3.792968-8.453125 8.453124-8.453125h7.078126zm0 79.726563h-7.078126c-4.660156 0-8.453124-3.789063-8.453124-8.453125 0-4.660156 3.792968-8.453125 8.453124-8.453125h7.078126zm0 79.730469h-7.078126c-4.660156 0-8.453124-3.792969-8.453124-8.453125 0-4.664063 3.792968-8.453125 8.453124-8.453125h7.078126zm382.921874 28.890625c0 2.289062-1.859374 4.152343-4.148437 4.152343h-359.441406c-2.289063 0-4.148438-1.863281-4.148438-4.152343v-473.339844c0-2.285156 1.859375-4.148437 4.148438-4.148437h359.441406c2.289063 0 4.148437 1.863281 4.148437 4.148437zm0 0"/></svg>