<svg id="_x33_0" enable-background="new 0 0 64 64" height="512" viewBox="0 0 64 64" width="512" xmlns="http://www.w3.org/2000/svg"><g><g><g><path d="m55 2 6 8h-3v10h-6v-10h-3z" fill="#ff826e"/></g><g><path d="m48 24-6 8-6-8h3v-10h6v10z" fill="#ff826e"/></g><g><path d="m32 16c0 1.1-3.58 2-8 2s-8-.9-8-2c0-.74 1.61-1.38 4-1.73 1.18-.17 2.54-.27 4-.27 4.42 0 8 .9 8 2z" fill="#ffc729"/></g><g><path d="m16 22c0 1.1 3.58 2 8 2s8-.9 8-2v6c0 1.1-3.58 2-8 2s-8-.9-8-2v-4.27z" fill="#ffc729"/></g><g><path d="m16 29.73v4.27h-12v-6c0 1.1 3.58 2 8 2 1.46 0 2.82-.1 4-.27z" fill="#ffc729"/></g><g><path d="m16 22v1.73c-1.18.17-2.54.27-4 .27-4.42 0-8-.9-8-2v-6c0 1.1 3.58 2 8 2 1.46 0 2.82-.1 4-.27z" fill="#ffc729"/></g><g><path d="m20 4v6c0 1.1-3.58 2-8 2s-8-.9-8-2v-6c0 1.1 3.58 2 8 2s8-.9 8-2z" fill="#ffc729"/></g><g><ellipse cx="12" cy="4" fill="#fcd770" rx="8" ry="2"/></g><g><path d="m16 16v1.73c-1.18.17-2.54.27-4 .27-4.42 0-8-.9-8-2v-6c0 1.1 3.58 2 8 2s8-.9 8-2v4.27c-2.39.35-4 .99-4 1.73z" fill="#fcd770"/></g><g><path d="m16 28v1.73c-1.18.17-2.54.27-4 .27-4.42 0-8-.9-8-2v-6c0 1.1 3.58 2 8 2 1.46 0 2.82-.1 4-.27z" fill="#fcd770"/></g><g><path d="m32 16v6c0 1.1-3.58 2-8 2s-8-.9-8-2v-4.27-1.73c0 1.1 3.58 2 8 2s8-.9 8-2z" fill="#fcd770"/></g><g><path d="m16 28c0 1.1 3.58 2 8 2s8-.9 8-2v6h-16v-4.27z" fill="#fcd770"/></g><g><path d="m62 35v26c0 .55-.45 1-1 1h-58c-.55 0-1-.45-1-1v-26c0-.55.45-1 1-1h1 12 16 29c.55 0 1 .45 1 1z" fill="#48cfad"/></g><g><path d="m12 38h20c-5.52 0-10 4.48-10 10s4.48 10 10 10h-20c0-3.31-2.69-6-6-6v-8c3.31 0 6-2.69 6-6z" fill="#5cd6b3"/></g><g><path d="m58 44v8c-3.31 0-6 2.69-6 6h-20c5.52 0 10-4.48 10-10s-4.48-10-10-10h20c0 3.31 2.69 6 6 6z" fill="#5cd6b3"/></g><g><path d="m6 38h6c0 3.31-2.69 6-6 6z" fill="#e6e9ed"/></g><g><path d="m12 58h-6v-6c3.31 0 6 2.69 6 6z" fill="#e6e9ed"/></g><g><path d="m58 52v6h-6c0-3.31 2.69-6 6-6z" fill="#e6e9ed"/></g><g><path d="m58 38v6c-3.31 0-6-2.69-6-6z" fill="#e6e9ed"/></g><g><circle cx="32" cy="48" fill="#fcd770" r="10"/></g></g><g><path d="m31 52.816v2.184h2v-2h2v-3c0-1.654-1.346-3-3-3-.552 0-1-.448-1-1v-1h1c.552 0 1 .448 1 1v1h2v-1c0-1.302-.839-2.402-2-2.816v-2.184h-2v2h-2v3c0 1.654 1.346 3 3 3 .552 0 1 .448 1 1v1h-1c-.552 0-1-.448-1-1v-1h-2v1c0 1.302.839 2.402 2 2.816z"/><path d="m61 33h-18.5l7.5-10h-4v-10h-8v10h-4l7.5 10h-8.5v-17c0-2.855-7.497-3-9-3-.5 0-1.669.019-3 .145v-9.145c0-2.855-7.497-3-9-3s-9 .145-9 3v29c-1.103 0-2 .897-2 2v26c0 1.103.897 2 2 2h58c1.103 0 2-.897 2-2v-26c0-1.103-.897-2-2-2zm-21-8v-10h4v10h2l-4 5.333-4-5.333zm-23 8v-2.96c2.332.891 5.997.96 7 .96s4.668-.069 7-.96v2.96zm-12-8.96c2.332.891 5.997.96 7 .96 1.029 0 2.045-.05 3-.143v3.992c-.944.099-1.965.151-3 .151-4.085 0-6.53-.755-7-1.182zm0-6c2.332.891 5.997.96 7 .96 1.029 0 2.045-.05 3-.143v3.992c-.944.099-1.965.151-3 .151-4.085 0-6.53-.755-7-1.182zm26 3.778c-.47.427-2.915 1.182-7 1.182s-6.53-.755-7-1.182v-3.778c2.332.891 5.997.96 7 .96s4.668-.069 7-.96zm0 6c-.47.427-2.915 1.182-7 1.182s-6.53-.755-7-1.182v-3.778c2.332.891 5.997.96 7 .96s4.668-.069 7-.96zm-.272-11.818c-.862.43-3.186 1-6.728 1s-5.865-.57-6.728-1c.862-.43 3.186-1 6.728-1s5.865.57 6.728 1zm-15.728 0v.848c-.944.1-1.965.152-3 .152-4.085 0-6.53-.755-7-1.182v-3.778c2.332.891 5.997.96 7 .96s4.668-.069 7-.96v1.379c-2.087.389-4 1.139-4 2.581zm-10-9.96c2.332.891 5.997.96 7 .96s4.668-.069 7-.96v3.778c-.47.427-2.915 1.182-7 1.182s-6.53-.755-7-1.182zm7-3.04c3.542 0 5.865.57 6.728 1-.863.43-3.186 1-6.728 1s-5.865-.57-6.728-1c.863-.43 3.186-1 6.728-1zm-7 27.04c2.332.891 5.997.96 7 .96 1.029 0 2.045-.05 3-.143v2.143h-10zm-2 30.96v-26h58l.002 26z"/><path d="m5 37v22h54v-22zm5.899 2c-.399 1.956-1.943 3.5-3.899 3.899v-3.899zm-3.899 14.101c1.956.399 3.5 1.943 3.899 3.899h-3.899zm5.92 3.899c-.441-3.059-2.861-5.479-5.92-5.92v-6.16c3.059-.441 5.479-2.861 5.92-5.92h12.775c-2.834 1.992-4.695 5.28-4.695 9s1.861 7.008 4.695 9zm19.08-18c4.963 0 9 4.037 9 9s-4.037 9-9 9-9-4.037-9-9 4.037-9 9-9zm21.101 18c.399-1.956 1.943-3.5 3.899-3.899v3.899zm3.899-14.101c-1.956-.399-3.5-1.943-3.899-3.899h3.899zm-5.92-3.899c.441 3.059 2.861 5.479 5.92 5.92v6.16c-3.059.441-5.479 2.861-5.92 5.92h-12.775c2.834-1.992 4.695-5.28 4.695-9s-1.861-7.008-4.695-9z"/><path d="m51 21h8v-10h4l-8-10.667-8 10.667h4zm4-17.333 4 5.333h-2v10h-4v-10h-2z"/></g></g></svg>